<?xml version="1.0" encoding="utf-8"?>
<!-- Generator: Adobe Illustrator 26.0.1, SVG Export Plug-In . SVG Version: 6.00 Build 0)  -->
<svg version="1.1" id="圖層_1" xmlns="http://www.w3.org/2000/svg" xmlns:xlink="http://www.w3.org/1999/xlink" x="0px" y="0px"
	 viewBox="0 0 800 800" style="enable-background:new 0 0 800 800;" xml:space="preserve">
<style type="text/css">
	.st0{fill:#FFFFFF;}
</style>
<g>
	<path class="st0" d="M424.77,414.84c0,58.83-0.07,117.65,0.06,176.48c0.03,12.01-4.24,21.27-15.49,26.12
		c-11.56,4.99-21.41,1.28-29.92-7.27c-29.51-29.64-59.08-59.21-88.5-88.95c-3.2-3.24-6.44-4.52-10.96-4.5
		c-33.82,0.16-67.65,0.14-101.47,0.04c-13.38-0.04-22.49-6.75-25.65-18.72c-0.71-2.69-0.81-5.6-0.81-8.41
		c-0.03-49.83,0.28-99.66-0.18-149.48c-0.13-14.61,10.46-28.04,27.81-27.76c32.65,0.53,65.31,0.04,97.97,0.27
		c5.92,0.04,10.19-1.55,14.45-5.87c28.78-29.18,57.87-58.07,86.83-87.08c6.8-6.82,14.48-11.23,24.53-9.49
		c12.82,2.23,21.16,11.9,21.3,25.14c0.18,16.33,0.05,32.66,0.05,48.99c0,43.5,0,86.99,0,130.49
		C424.78,414.84,424.78,414.84,424.77,414.84z"/>
	<path class="st0" d="M664.32,415.21c-1.9,69.87-31.62,124.99-89.58,164.81c-12.76,8.77-27.85,6.39-36.18-5.43
		c-8.39-11.91-5.5-27.68,7.37-36.35c19.08-12.86,34.93-28.63,46.92-48.35c30.44-50.06,26.8-117.27-8.92-163.65
		c-10.17-13.2-22.24-24.27-36.03-33.55c-7.95-5.35-13.68-12.02-13.86-22.32c-0.18-10.35,4.25-18.1,13.05-23.07
		c8.72-4.92,17.5-4.15,26.03,1.14c14.41,8.94,27.03,19.97,38.54,32.35c28.47,30.61,44.85,66.92,51,108.06
		c0.1,0.66,0.13,1.33,0.17,1.99C663.33,398.8,663.81,406.77,664.32,415.21z"/>
	<path class="st0" d="M498.04,330c12.34-0.2,19.21,5.15,25.9,10.28c22.3,17.12,35.41,39.57,37.01,67.92
		c2.19,39.05-14.68,68.12-47.83,87.94c-12.12,7.25-26.85,3.09-33.96-8.72c-7.29-12.1-3.85-26.49,8.39-34.41
		c10.39-6.72,18.61-15.07,21.89-27.43c4.85-18.25-2.74-37.14-18.92-47.1c-14.21-8.74-18.82-21.58-12.4-34.59
		C482.82,334.34,490.99,330.48,498.04,330z"/>
</g>
</svg>
